{"title":"A.Clockwork.Orange.1971.720p.BluRay.DTS.x264.AVI.[PublicHD]","uid":11022795,"size":7275970139,"categoryP":"video","categoryS":"hd___movies","magnet":"?xt=urn:btih:9e94f2707ce970d6b9e375e148754061dbd73033&amp;dn=A.Clockwork.Orange.1971.720p.BluRay.DTS.x264.AVI.%5BPublicHD%5D&amp;tr=udp%3A%2F%2Ftracker.openbittorrent.com%3A80&amp;tr=udp%3A%2F%2Fopen.demonii.com%3A1337&amp;tr=udp%3A%2F%2Ftracker.coppersurfer.tk%3A6969&amp;tr=udp%3A%2F%2Fexodus.desync.com%3A6969","seeders":2,"leechers":1,"uploader":"user101966","files":4,"time":1410622821,"description":"This video is the result of brutal struggle between me and an MKV file *of spectacularly high quality* (see torrent #8366709 by user &quot;aoloffline&quot;) containing the well known (and brilliant) film adaptation of Anthony Burgess' equally brilliant and well known 1962 novella entitled &quot;A Clockwork Orange&quot; (ie. the one directed by Stanley Kubrick) transformed into something of commensurate quality, however with the added bonus that my machine can actually render it. \n\nThe resulting AVI contained here is identical in terms of video quality, but of &quot;slightly lesser&quot; quality in terms of audio (1500 kbps vs. 192 kbps or ~ 88% reduced).\n\nHowever, also included in this torrent is a dummy video containing the original DTS audio stream. That audio stream is of the same quality you'd expect (and would be required) for your local movie theatre.\n\nI have $10.00 speakers. I couldn't possibly tell the difference. So I don't need it.\n\nSo now at least I (and you too) can watch this movie with *perfect visual quality* and decent audio quality (192 kbps, 48KHz cbr mp3).\n\nBut, like I said, if you happen to have a MEGA SOUND SYSTEM and a BLISTERINGLY FAST computer then you can simply merge the &quot;DTS&quot; audio back into the AVI and play the movie on as large a television screen as you can buy and with the best stereo system you can afford. Or, if you like, on a movie theatre's screen and with a movie theatre's sound system.\n\nVideo Info:\n-----------\nGeneral\nComplete name                            : A Clockwork Orange.avi\nFormat                                   : AVI\nFormat/Info                              : Audio Video Interleave\nFormat profile                           : OpenDML\nFile size                                : 5.32 GiB\nDuration                                 : 2h 16mn\nOverall bit rate                         : 5 582 Kbps\nWriting library                          : VirtualDub build 35491/release\n\nVideo\nID                                       : 0\nFormat                                   : AVC\nFormat/Info                              : Advanced Video Codec\nFormat profile                           : &lt;a class=&quot;__cf_email__&quot; href=&quot;/cdn-cgi/l/email-protection&quot; data-cfemail=&quot;1159787679515d253f20&quot;&gt;[email&amp;#160;protected]&lt;/a&gt;&lt;script cf-hash='f9e31' type=&quot;text/javascript&quot;&gt;\n/* &lt;![CDATA[ */!function(){try{var t=&quot;currentScript&quot;in document?document.currentScript:function(){for(var t=document.getElementsByTagName(&quot;script&quot;),e=t.length;e--;)if(t[e].getAttribute(&quot;cf-hash&quot;))return t[e]}();if(t&amp;&amp;t.previousSibling){var e,r,n,i,c=t.previousSibling,a=c.getAttribute(&quot;data-cfemail&quot;);if(a){for(e=&quot;&quot;,r=parseInt(a.substr(0,2),16),n=2;a.length-n;n+=2)i=parseInt(a.substr(n,2),16)^r,e+=String.fromCharCode(i);e=document.createTextNode(e),c.parentNode.replaceChild(e,c)}}}catch(u){}}();/* ]]&gt; */&lt;/script&gt;\nFormat settings, CABAC                   : Yes\nFormat settings, ReFrames                : 9 frames\nCodec ID                                 : AVC1\nDuration                                 : 2h 16mn\nBit rate                                 : 5 382 Kbps\nWidth                                    : 1 192 pixels\nHeight                                   : 720 pixels\nDisplay aspect ratio                     : 1.656\nFrame rate                               : 23.976 fps\nColor space                              : YUV\nChroma subsampling                       : 4:2:0\nBit depth                                : 8 bits\nScan type                                : Progressive\nBits/(Pixel*Frame)                       : 0.262\nStream size                              : 5.13 GiB (96%)\nWriting library                          : x264 core 128 r2216kMod 198a7ea\nEncoding settings                        : cabac=1 / ref=9 / deblock=1:-3:-3 / analyse=0x3:0x133 / me=umh / subme=9 / psy=1 / fade_compensate=0.00 / psy_rd=1.15:0.00 / mixed_ref=1 / me_range=64 / chroma_me=1 / trellis=2 / 8x8dct=1 / cqm=0 / deadzone=21,11 / fast_pskip=0 / chroma_qp_offset=-2 / threads=12 / lookahead_threads=2 / sliced_threads=0 / nr=0 / decimate=0 / interlaced=0 / bluray_compat=0 / constrained_intra=0 / bframes=9 / b_pyramid=2 / b_adapt=2 / b_bias=0 / direct=3 / weightb=1 / open_gop=0 / weightp=2 / keyint=250 / keyint_min=23 / scenecut=40 / intra_refresh=0 / rc=crf / mbtree=0 / crf=17.5000 / qcomp=0.80 / qpmin=0 / qpmax=69 / qpstep=4 / ip_ratio=1.30 / pb_ratio=1.15 / aq=2:0.90\n\nAudio\nID                                       : 1\nFormat                                   : MPEG Audio\nFormat version                           : Version 1\nFormat profile                           : Layer 3\nMode                                     : Joint stereo\nMode extension                           : MS Stereo\nCodec ID                                 : 55\nCodec ID/Hint                            : MP3\nDuration                                 : 2h 16mn\nBit rate mode                            : Constant\nBit rate                                 : 192 Kbps\nChannel(s)                               : 2 channels\nSampling rate                            : 48.0 KHz\nCompression mode                         : Lossy\nStream size                              : 187 MiB (3%)\nAlignment                                : Split accross interleaves\nInterleave, duration                     : 42 ms (1.00 video frame)\nInterleave, preload duration             : 500 ms\n\n*******************************************************************\n\nDTS Audio AVI container details:\n--------------------------------\n\nGeneral\nComplete name                            : dts.audio.a.clockwork.orange.avi\nFormat                                   : AVI\nFormat/Info                              : Audio Video Interleave\nFile size                                : 1.45 GiB\nDuration                                 : 2h 17mn\nOverall bit rate                         : 1 509 Kbps\nWriting application                      : MEncoder r33883\nWriting library                          : VirtualDub build 35491/release\n\nVideo\nID                                       : 0\nFormat                                   : MPEG-4 Visual\nFormat profile                           : Advanced Simple@L5\nFormat settings, BVOP                    : 1\nFormat settings, QPel                    : No\nFormat settings, GMC                     : No warppoints\nFormat settings, Matrix                  : Custom\nCodec ID                                 : XVID\nCodec ID/Hint                            : XviD\nDuration                                 : 2h 17mn\nBit rate                                 : 2 728 bps\nWidth                                    : 10 pixels\nHeight                                   : 10 pixels\nDisplay aspect ratio                     : 1.000\nFrame rate                               : 29.970 fps\nColor space                              : YUV\nChroma subsampling                       : 4:2:0\nBit depth                                : 8 bits\nScan type                                : Progressive\nCompression mode                         : Lossy\nBits/(Pixel*Frame)                       : 0.910\nStream size                              : 2.69 MiB (0%)\nWriting library                          : XviD 64\n\nAudio\nID                                       : 1\nFormat                                   : DTS\nFormat/Info                              : Digital Theater Systems\nMode                                     : 16\nFormat settings, Endianness              : Big\nCodec ID                                 : 2001\nCodec ID/Info                            : Digital Theater Systems\nDuration                                 : 2h 14mn\nBit rate mode                            : Constant\nBit rate                                 : 1 509 Kbps\nChannel(s)                               : 6 channels\nChannel positions                        : Front: L C R, Side: L R, LFE\nSampling rate                            : 48.0 KHz\nBit depth                                : 24 bits\nCompression mode                         : Lossy\nStream size                              : 1.44 GiB (99%)\nAlignment                                : Split accross interleaves\nInterleave, duration                     : 34 ms (1.03 video frame)\nInterleave, preload duration             : 500 ms\n\n---------------------------------------------\n\nIMDB: v\n\n- user101966","torrent":{"xt":"urn:btih:9e94f2707ce970d6b9e375e148754061dbd73033","amp;dn":"A.Clockwork.Orange.1971.720p.BluRay.DTS.x264.AVI.%5BPublicHD%5D","amp;tr":["udp%3A%2F%2Ftracker.openbittorrent.com%3A80","udp%3A%2F%2Fopen.demonii.com%3A1337","udp%3A%2F%2Ftracker.coppersurfer.tk%3A6969","udp%3A%2F%2Fexodus.desync.com%3A6969"],"infoHash":"9e94f2707ce970d6b9e375e148754061dbd73033","infoHashBuffer":{"type":"Buffer","data":[158,148,242,112,124,233,112,214,185,227,117,225,72,117,64,97,219,215,48,51]},"announce":[],"urlList":[]}}